# xmcd
#
# Track frame offsets:
# 150
# 9029
# 30070
# 50179
# 68824
# 80921
# 98508
# 121403
# 137415
# 150878
# 170401
# 195190
# 210826
# 217477
# 232889
# 238731
# 246495
# 263872
# 266732
# 278634
#
# Disc length: 3935 seconds
#
# Revision: 0
# Processed by: cddbd v1.5.2PL0 Copyright (c) Steve Scherf et al.
# Submitted via: Audion 3.0.2 (http://www.panic.com/audion/)
#
DISCID=080f5d14
DTITLE=z - z
DYEAR=1900
DGENRE=
TTITLE0=z
TTITLE1=z
TTITLE2=z
TTITLE3=z
TTITLE4=z
TTITLE5=z
TTITLE6=z
TTITLE7=z
TTITLE8=z
TTITLE9=z
TTITLE10=z
TTITLE11=z
TTITLE12=z
TTITLE13=z
TTITLE14=z
TTITLE15=z
TTITLE16=z
TTITLE17=z
TTITLE18=z
TTITLE19=z
EXTD=
EXTT0=
EXTT1=
EXTT2=
EXTT3=
EXTT4=
EXTT5=
EXTT6=
EXTT7=
EXTT8=
EXTT9=
EXTT10=
EXTT11=
EXTT12=
EXTT13=
EXTT14=
EXTT15=
EXTT16=
EXTT17=
EXTT18=
EXTT19=
PLAYORDER=
